<?xml version="1.0" encoding="utf-8"?>
<!-- Generator: Adobe Illustrator 26.0.0, SVG Export Plug-In . SVG Version: 6.00 Build 0)  -->
<svg version="1.1" id="Layer_1" xmlns="http://www.w3.org/2000/svg" xmlns:xlink="http://www.w3.org/1999/xlink" x="0px" y="0px"
	 viewBox="0 0 84 26" style="enable-background:new 0 0 84 26;" xml:space="preserve">
<style type="text/css">
	.st0{stroke:#979797;}
	.st1{fill:#FFFFFF;}
	.st2{fill-rule:evenodd;clip-rule:evenodd;fill:#FFFFFF;}
</style>
<path class="st0" d="M5.2,1h73.6c2.2,0,4,1.8,4,4v16c0,2.2-1.8,4-4,4H5.2c-2.2,0-4-1.8-4-4V5C1.2,2.8,3,1,5.2,1z"/>
<path class="st1" d="M17.7,12.9c0-1.2,0.7-2.4,1.7-3.1c-0.7-1-1.8-1.6-3-1.6C15.2,8.1,14,9,13.4,9c-0.6,0-1.6-0.7-2.7-0.7
	c-1.4,0-2.6,0.8-3.3,2c-1.4,2.5-0.4,6.1,1,8.1c0.7,1,1.5,2.1,2.5,2c1,0,1.4-0.6,2.7-0.6s1.6,0.6,2.7,0.6s1.8-1,2.5-2
	c0.5-0.7,0.9-1.5,1.1-2.3C18.6,15.6,17.7,14.3,17.7,12.9z"/>
<path class="st1" d="M15.7,6.9c0.6-0.7,0.9-1.6,0.8-2.6c-0.9,0.1-1.8,0.5-2.4,1.2c-0.6,0.7-0.9,1.6-0.8,2.5
	C14.2,8.1,15.1,7.6,15.7,6.9z"/>
<path class="st2" d="M31.2,20.3h1.4l-2.7-8.4h-1.7l-2.7,8.4h1.4l0.8-2.5h2.7L31.2,20.3z M29.4,14.6l0.7,2.2h-2.3l0.8-2.2
	c0.2-0.7,0.3-1.2,0.4-1.6C29.2,13.8,29.4,14.4,29.4,14.6z"/>
<path class="st2" d="M38.8,19.6c0.6-0.7,0.9-1.5,0.8-2.4c0-0.8-0.2-1.6-0.7-2.2c-0.5-0.6-1.2-0.9-2-0.8c-0.8,0-1.4,0.4-1.9,1.1
	l-0.1-1h-1.2c0,0.7,0.1,1.3,0.1,2v6.5h1.4v-3.2c0.4,0.6,1,0.9,1.7,0.9C37.6,20.4,38.3,20.1,38.8,19.6z M37.8,15.8
	c0.3,0.4,0.4,0.9,0.4,1.5c0,0.5-0.1,1.1-0.4,1.5c-0.3,0.4-0.7,0.6-1.2,0.6c-0.4,0-0.8-0.2-1.1-0.5c-0.3-0.3-0.4-0.7-0.4-1.1v-1
	c0-0.1,0-0.3,0.1-0.4c0.1-0.3,0.3-0.6,0.5-0.9c0.3-0.2,0.6-0.3,0.9-0.3C37.1,15.2,37.6,15.4,37.8,15.8z"/>
<path class="st2" d="M45.8,19.6c0.6-0.7,0.9-1.5,0.8-2.4c0-0.8-0.2-1.6-0.7-2.2c-0.5-0.6-1.2-0.9-2-0.8c-0.8,0-1.4,0.4-1.9,1.1
	l-0.1-1h-1.2c0,0.7,0.1,1.3,0.1,2v6.5h1.4v-3.2c0.4,0.6,1,0.9,1.7,0.9C44.6,20.4,45.3,20.1,45.8,19.6z M44.8,15.8
	c0.3,0.4,0.4,0.9,0.4,1.5c0,0.5-0.1,1.1-0.4,1.5c-0.3,0.4-0.7,0.6-1.2,0.6c-0.4,0-0.8-0.1-1.1-0.4c-0.3-0.3-0.4-0.7-0.4-1.1v-1
	c0-0.1,0-0.3,0.1-0.4c0.1-0.3,0.3-0.6,0.5-0.9c0.3-0.2,0.6-0.3,0.9-0.3C44.1,15.1,44.6,15.4,44.8,15.8z"/>
<path class="st1" d="M54.4,17.9c0,0.7-0.3,1.3-0.7,1.7c-0.6,0.5-1.5,0.8-2.3,0.7c-0.8,0-1.5-0.1-2.2-0.5l0.3-1.1
	c0.6,0.4,1.3,0.5,2,0.5c0.4,0,0.8-0.1,1.2-0.3c0.3-0.2,0.4-0.6,0.4-0.9c0-0.3-0.1-0.6-0.3-0.9c-0.3-0.3-0.7-0.5-1.2-0.6
	c-1.5-0.6-2.2-1.4-2.2-2.4c0-0.7,0.3-1.3,0.8-1.7c0.6-0.5,1.3-0.7,2.1-0.6c0.7,0,1.3,0.1,1.9,0.4l-0.3,1.1c-0.5-0.3-1.1-0.4-1.6-0.4
	c-0.4,0-0.8,0.1-1.1,0.3c-0.2,0.2-0.3,0.5-0.3,0.8c0,0.3,0.1,0.6,0.4,0.8c0.4,0.3,0.8,0.5,1.2,0.6c0.6,0.2,1.2,0.6,1.6,1
	C54.3,16.9,54.4,17.4,54.4,17.9z"/>
<path class="st1" d="M58.9,15.2h-1.5v2.9c0,0.7,0.3,1.1,0.8,1.1c0.2,0,0.4,0,0.6-0.1l0,1c-0.3,0.1-0.7,0.2-1.1,0.2
	c-0.5,0-0.9-0.1-1.3-0.5c-0.3-0.5-0.5-1.1-0.5-1.6v-3h-0.9v-1h0.9v-1.1l1.3-0.4v1.5h1.5L58.9,15.2z"/>
<path class="st2" d="M64.8,19.5c0.5-0.6,0.8-1.5,0.8-2.3c0-0.8-0.2-1.6-0.8-2.2c-0.6-0.6-1.3-0.9-2.2-0.9c-0.8,0-1.6,0.3-2.2,0.9
	c-0.6,0.6-0.9,1.5-0.8,2.3c0,0.8,0.3,1.6,0.8,2.2c0.5,0.6,1.3,0.9,2.1,0.9C63.4,20.4,64.2,20.1,64.8,19.5z M63.8,15.8
	c0.3,0.4,0.4,0.9,0.4,1.4c0,0.5-0.1,1-0.4,1.4c-0.2,0.4-0.7,0.7-1.2,0.7c-0.5,0-1-0.3-1.2-0.7c-0.2-0.4-0.4-0.9-0.4-1.4
	c0-0.5,0.1-1,0.4-1.5c0.2-0.5,0.7-0.7,1.3-0.7C63.1,15.1,63.6,15.4,63.8,15.8z"/>
<path class="st1" d="M70,15.4c-0.1,0-0.3,0-0.4,0c-0.4,0-0.9,0.2-1.1,0.5c-0.2,0.4-0.4,0.8-0.3,1.2v3.1h-1.3v-4.1
	c0-0.7,0-1.3-0.1-1.9h1.2l0.1,1.2h0c0.1-0.4,0.4-0.7,0.7-1c0.3-0.2,0.6-0.3,1-0.3c0.1,0,0.2,0,0.3,0L70,15.4z"/>
<path class="st2" d="M76,17.6c0-0.2,0.1-0.4,0.1-0.6c0-0.7-0.2-1.3-0.5-1.9c-0.4-0.6-1.2-1-2-1c-0.8,0-1.6,0.3-2.1,1
	c-0.5,0.6-0.8,1.4-0.8,2.3c0,0.8,0.2,1.6,0.8,2.2c0.6,0.6,1.4,0.9,2.2,0.8c0.7,0,1.4-0.1,2-0.4l-0.2-0.9c-0.5,0.2-1.1,0.3-1.6,0.3
	c-0.5,0-0.9-0.1-1.3-0.4c-0.4-0.3-0.6-0.8-0.6-1.4H76z M74.5,15.6c0.2,0.3,0.3,0.7,0.3,1H72c0-0.4,0.2-0.7,0.4-1
	c0.2-0.4,0.6-0.6,1.1-0.5C73.9,15,74.3,15.2,74.5,15.6z"/>
<path class="st2" d="M29,8.4c0.5-0.4,0.7-1.1,0.6-1.7c0-0.6-0.2-1.1-0.6-1.5c-0.5-0.3-1.1-0.5-1.6-0.5c-0.4,0-0.8,0-1.1,0.1v4
	c0.3,0,0.6,0.1,1,0.1C27.9,9,28.5,8.8,29,8.4z M28.6,5.6C28.9,5.9,29,6.3,29,6.7h0c0,0.5-0.1,0.9-0.4,1.3c-0.3,0.3-0.8,0.4-1.2,0.4
	c-0.1,0-0.3,0-0.4,0V5.3c0.2,0,0.4,0,0.5,0C27.9,5.2,28.3,5.4,28.6,5.6z"/>
<path class="st2" d="M33,8.5c0.3-0.3,0.4-0.7,0.4-1.1c0-0.4-0.1-0.8-0.4-1.1C32.8,6,32.4,5.8,32,5.8c-0.4,0-0.8,0.1-1.1,0.4
	c-0.3,0.3-0.4,0.7-0.4,1.1c0,0.4,0.1,0.8,0.4,1.1c0.3,0.3,0.6,0.5,1,0.4C32.3,9,32.7,8.8,33,8.5z M32.6,6.7c0.1,0.2,0.2,0.4,0.2,0.6
	v0c0,0.3,0,0.5-0.2,0.7c-0.1,0.2-0.3,0.4-0.6,0.4c-0.3,0-0.5-0.1-0.6-0.4c-0.1-0.2-0.2-0.5-0.2-0.7c0-0.3,0.1-0.5,0.2-0.7
	c0.1-0.2,0.4-0.4,0.6-0.4C32.2,6.4,32.4,6.5,32.6,6.7z"/>
<path class="st1" d="M38.4,5.9l-0.9,3h-0.6l-0.4-1.3c-0.1-0.3-0.2-0.6-0.2-1c-0.1,0.3-0.1,0.6-0.2,1l-0.4,1.3h-0.6l-0.8-3h0.7
	l0.3,1.4c0.1,0.3,0.1,0.6,0.2,1c0.1-0.2,0.1-0.6,0.2-0.9L36,6h0.5l0.4,1.4c0.1,0.3,0.2,0.7,0.2,1c0-0.3,0.1-0.7,0.2-1L37.7,6
	L38.4,5.9L38.4,5.9z"/>
<path class="st1" d="M41.8,8.9h-0.6V7.2c0-0.5-0.2-0.8-0.6-0.8c-0.2,0-0.4,0.1-0.5,0.2c-0.1,0.1-0.2,0.3-0.2,0.5v1.8h-0.6V6.8
	c0-0.3,0-0.5,0-0.8h0.5v0.5C39.9,6.2,40,6.1,40.2,6c0.2-0.1,0.4-0.2,0.6-0.2c0.3,0,0.5,0.1,0.7,0.3c0.2,0.3,0.4,0.6,0.3,1L41.8,8.9z
	"/>
<path class="st1" d="M43.7,8.9H43V4.6h0.6L43.7,8.9z"/>
<path class="st2" d="M47.2,8.5c0.3-0.3,0.4-0.7,0.4-1.1c0-0.4-0.1-0.8-0.4-1.1c-0.3-0.3-0.7-0.4-1.1-0.4c-0.4,0-0.8,0.1-1.1,0.4
	c-0.3,0.3-0.4,0.7-0.4,1.1c0,0.4,0.1,0.8,0.4,1.1c0.3,0.3,0.6,0.5,1,0.4C46.5,9,46.9,8.8,47.2,8.5z M46.7,6.7
	c0.1,0.2,0.2,0.4,0.2,0.6v0c0,0.2,0,0.5-0.1,0.7c-0.1,0.2-0.3,0.4-0.6,0.4c-0.3,0-0.5-0.1-0.6-0.4c-0.1-0.2-0.2-0.4-0.2-0.7
	c0-0.3,0.1-0.5,0.2-0.7c0.1-0.2,0.3-0.4,0.6-0.4C46.4,6.4,46.6,6.5,46.7,6.7z"/>
<path class="st2" d="M50.2,8.9h0.6c0-0.2,0-0.5,0-0.7V7.1c0-0.8-0.4-1.2-1.2-1.2c-0.4,0-0.7,0.1-1,0.3l0.1,0.5
	c0.2-0.1,0.5-0.2,0.8-0.2c0.4,0,0.6,0.2,0.6,0.6v0c-0.4,0-0.9,0.1-1.3,0.3c-0.3,0.2-0.5,0.5-0.5,0.8c0,0.2,0.1,0.5,0.2,0.6
	C48.8,8.9,49,9,49.3,9c0.3,0,0.7-0.1,0.9-0.4L50.2,8.9z M50.1,7.4v0.5c0,0.2-0.1,0.4-0.2,0.5c-0.1,0.1-0.3,0.1-0.4,0.1
	c-0.1,0-0.2,0-0.3-0.1C49,8.3,49,8.1,49,8C49,7.6,49.4,7.4,50.1,7.4z"/>
<path class="st2" d="M54,8.9h0.6c0-0.2,0-0.5,0-0.8V4.6h-0.6v1.7c-0.2-0.3-0.5-0.4-0.8-0.4c-0.4,0-0.7,0.1-0.9,0.4
	c-0.3,0.3-0.4,0.7-0.4,1.2c0,0.4,0.1,0.8,0.4,1.1C52.3,8.8,52.7,9,53,9c0.4,0,0.8-0.2,1-0.5V8.9z M53.9,7.1v0.5v0
	c0,0.2-0.1,0.4-0.2,0.5c-0.1,0.2-0.3,0.3-0.5,0.2c-0.2,0-0.5-0.1-0.6-0.3c-0.1-0.2-0.2-0.5-0.2-0.7c0-0.3,0.1-0.5,0.2-0.7
	c0.1-0.2,0.4-0.3,0.6-0.3c0.2,0,0.3,0.1,0.4,0.2c0.1,0.1,0.2,0.2,0.2,0.4C53.9,7,53.9,7.1,53.9,7.1z"/>
<path class="st2" d="M59.9,8.5c0.3-0.3,0.4-0.7,0.4-1.1c0-0.4-0.1-0.8-0.4-1.1c-0.3-0.3-0.7-0.5-1.1-0.4c-0.4,0-0.8,0.1-1.1,0.4
	c-0.3,0.3-0.4,0.7-0.4,1.1c0,0.4,0.1,0.8,0.4,1.1c0.3,0.3,0.6,0.5,1,0.4C59.2,9,59.6,8.8,59.9,8.5z M59.4,6.7
	c0.1,0.2,0.2,0.4,0.2,0.6v0c0,0.3,0,0.5-0.2,0.7c-0.1,0.2-0.3,0.4-0.6,0.4c-0.3,0-0.5-0.1-0.6-0.4C58.1,7.9,58,7.7,58,7.4
	c0-0.3,0.1-0.5,0.2-0.7c0.1-0.2,0.3-0.4,0.6-0.4C59,6.4,59.3,6.5,59.4,6.7z"/>
<path class="st1" d="M63.8,8.9h-0.6V7.2c0-0.5-0.2-0.8-0.6-0.8c-0.2,0-0.4,0.1-0.5,0.2c-0.1,0.1-0.2,0.3-0.2,0.5v1.8h-0.6V6.8
	c0-0.3,0-0.5,0-0.8h0.6v0.5C61.9,6.2,62,6.1,62.2,6c0.2-0.1,0.4-0.2,0.6-0.2c0.3,0,0.5,0.1,0.7,0.3c0.2,0.3,0.4,0.6,0.3,1L63.8,8.9z
	"/>
<path class="st1" d="M68.3,6.4h-0.7v1.4c0,0.4,0.1,0.5,0.4,0.5c0.1,0,0.2,0,0.3,0v0.5C68.1,9,67.9,9,67.7,9c-0.2,0-0.5-0.1-0.6-0.2
	c-0.2-0.2-0.2-0.5-0.2-0.8V6.4h-0.4V5.9h0.4V5.4l0.6-0.2v0.7h0.7L68.3,6.4L68.3,6.4z"/>
<path class="st1" d="M71.8,8.9h-0.6V7.2c0-0.5-0.2-0.8-0.6-0.8c-0.3,0-0.6,0.2-0.6,0.5c0,0.1,0,0.2,0,0.2v1.8h-0.6V4.6h0.6v1.8
	c0.2-0.3,0.5-0.5,0.9-0.5c0.2,0,0.5,0.1,0.7,0.2c0.2,0.3,0.4,0.6,0.3,1L71.8,8.9z"/>
<path class="st2" d="M75.4,7.6c0-0.1,0-0.2,0-0.3c0-0.3-0.1-0.7-0.3-0.9c-0.2-0.3-0.6-0.5-1-0.5c-0.4,0-0.8,0.2-1,0.5
	c-0.3,0.3-0.4,0.7-0.4,1.1c0,0.4,0.1,0.8,0.4,1.1C73.4,8.8,73.8,9,74.2,9c0.3,0,0.7-0.1,1-0.2l-0.1-0.5c-0.3,0.1-0.5,0.1-0.8,0.1
	c-0.2,0-0.5-0.1-0.6-0.2c-0.2-0.2-0.3-0.4-0.3-0.7H75.4z M74.7,6.6c0.1,0.2,0.1,0.3,0.1,0.5l-1.4,0c0-0.2,0.1-0.4,0.2-0.5
	c0.1-0.2,0.3-0.3,0.5-0.3C74.4,6.3,74.6,6.4,74.7,6.6z"/>
</svg>
