<?xml version="1.0" encoding="utf-8"?>
<!-- Generator: Adobe Illustrator 23.0.2, SVG Export Plug-In . SVG Version: 6.00 Build 0)  -->
<svg version="1.0" id="Layer_1" xmlns="http://www.w3.org/2000/svg" xmlns:xlink="http://www.w3.org/1999/xlink" x="0px" y="0px" width="780px" height="501px"
	 viewBox="0 0 243 156" style="enable-background:new 0 0 243 156;" xml:space="preserve">
<style type="text/css">
	.st0{fill:#010101;}
	.st1{fill:#61BB47;}
	.st2{fill:#FFFFFF;}
</style>
<g id="esewa">
	<g>
		<path class="st0" d="M68.84,105.64l0.13-17.22l0.96,0.04c1.17,4.38,2.56,7.83,4.17,10.36c3.03,4.66,6.84,6.99,11.42,6.99
			c3.2,0,5.84-1.07,7.92-3.21c2.08-2.14,3.13-4.85,3.13-8.13c0-1.42-0.23-2.86-0.69-4.34c-0.46-1.47-1.08-2.74-1.86-3.79
			c-0.81-1.08-1.94-2.13-3.4-3.13c-1.46-1-3.69-2.26-6.69-3.79c-2.64-1.33-4.66-2.46-6.07-3.38c-1.4-0.92-2.54-1.85-3.4-2.79
			c-2.39-2.61-3.59-5.79-3.59-9.55c0-2.31,0.47-4.53,1.4-6.67c0.93-2.14,2.23-3.97,3.9-5.5c2.95-2.72,6.43-4.09,10.46-4.09
			c1.31,0,2.52,0.13,3.63,0.4c1.11,0.26,2.6,0.79,4.46,1.56c1.39,0.56,2.33,0.91,2.83,1.06c0.5,0.15,0.94,0.23,1.33,0.23
			c0.97,0,1.63-0.71,1.96-2.13h0.96l0.29,16.55h-0.96c-0.75-2.64-1.39-4.66-1.94-6.07c-0.54-1.4-1.19-2.7-1.94-3.9
			c-1.36-2.17-2.86-3.77-4.49-4.82c-1.64-1.04-3.52-1.56-5.66-1.56c-3.11,0-5.56,1.06-7.37,3.17c-0.75,0.86-1.34,1.88-1.77,3.05
			c-0.43,1.17-0.64,2.34-0.64,3.51c0,4.65,2.98,8.39,8.95,11.23l5.87,2.84c4.52,2.14,7.78,4.51,9.78,7.09
			c2.28,2.89,3.41,6.26,3.41,10.1c0,2.55-0.51,4.99-1.54,7.32c-1.45,3.24-3.61,5.75-6.5,7.51c-2.89,1.76-6.3,2.64-10.21,2.64
			c-3.59,0-7.03-0.71-10.34-2.13c-1.72-0.75-2.75-1.18-3.09-1.29c-0.33-0.11-0.71-0.17-1.13-0.17c-1.33,0-2.25,0.67-2.75,2H68.84z"
			/>
		<path class="st0" d="M118.87,83.12c-0.11,1.36-0.17,2.35-0.17,2.96c0,2.42,0.35,4.78,1.06,7.09c0.71,2.31,1.67,4.22,2.89,5.75
			c1.25,1.56,2.79,2.78,4.63,3.67s3.77,1.33,5.8,1.33c1.5,0,2.91-0.25,4.26-0.75c1.34-0.5,2.46-1.19,3.34-2.08
			c1-0.97,1.86-2.53,2.58-4.67l0.88,0.29c-0.72,3.25-2.27,5.71-4.65,7.36c-2.38,1.65-5.54,2.48-9.48,2.48
			c-3.42,0-6.35-0.54-8.8-1.63c-2.45-1.08-4.52-2.75-6.21-5c-2.36-3.14-3.54-7-3.54-11.59c0-6.25,2.24-11.16,6.71-14.72
			c3.25-2.58,6.96-3.88,11.13-3.88c2.22,0,4.28,0.4,6.17,1.19c1.89,0.79,3.49,1.94,4.79,3.44c2.03,2.33,3.04,5.25,3.04,8.75H118.87z
			 M137.05,81.5c-0.19-2.78-0.71-4.92-1.54-6.42c-0.75-1.36-1.74-2.44-2.99-3.23c-1.25-0.79-2.57-1.19-3.98-1.19
			c-2.38,0-4.46,1.03-6.25,3.09c-1.78,2.06-2.84,4.64-3.17,7.75H137.05z"/>
		<path class="st0" d="M146.64,70.37h16.22v0.92c-3.11,0.17-4.67,1.37-4.67,3.62c0,1.11,0.55,3.41,1.66,6.91l5.06,15.53L172,78.57
			c0.56-1.44,0.84-2.61,0.84-3.5c0-2.39-1.45-3.65-4.34-3.79v-0.92h15.97v0.92c-1.36,0.19-2.32,0.49-2.88,0.87
			c-0.89,0.61-1.33,1.53-1.33,2.75c0,0.97,0.26,2.35,0.79,4.12l5.48,18.31L193,80.86c0.83-2.14,1.24-3.76,1.24-4.87
			c0-1.5-0.52-2.65-1.57-3.45c-0.52-0.44-1.47-0.86-2.85-1.25v-0.92h12.26v0.92c-1.2,0-2.27,0.39-3.21,1.17
			c-0.61,0.47-1.19,1.19-1.73,2.14c-0.54,0.96-1.19,2.39-1.94,4.31l-0.88,2.12l-9.92,24.78h-1.46l-9.11-27.85l-10.99,27.85h-1.42
			l-8.33-25.23l-1-3.04c-0.92-2.75-1.86-4.48-2.83-5.2c-0.56-0.44-1.43-0.79-2.63-1.04V70.37z"/>
		<path class="st0" d="M236.6,101.76l0.71,0.42c-1,2.92-3.29,4.38-6.88,4.38c-1.98,0-3.62-0.49-4.93-1.46
			c-0.86-0.64-1.75-1.75-2.67-3.34c-1.87,1.67-3.27,2.77-4.22,3.29c-1.81,1-3.91,1.5-6.3,1.5c-3.06,0-5.49-0.74-7.29-2.21
			c-1.8-1.47-2.69-3.46-2.69-5.96c0-2.31,0.74-4.24,2.21-5.79c0.83-0.86,1.79-1.55,2.88-2.06c1.08-0.51,2.65-1.03,4.71-1.56
			c2.42-0.61,4.2-1.13,5.36-1.54c1.15-0.42,2.12-0.92,2.9-1.5c0.89-0.64,1.5-1.39,1.83-2.25c0.33-0.86,0.5-2.06,0.5-3.59
			c0-3.25-0.61-5.63-1.83-7.13c-0.56-0.69-1.27-1.25-2.15-1.67c-0.88-0.42-1.79-0.63-2.73-0.63c-1.14,0-2.15,0.29-3.04,0.88
			s-1.56,1.39-2,2.42l-1.04,2.42c-0.56,1.31-1.56,1.96-3,1.96c-0.95,0-1.74-0.31-2.38-0.94c-0.64-0.63-0.96-1.41-0.96-2.36
			c0-1.42,1-2.61,3.01-3.59c1.09-0.5,2.43-0.91,4.03-1.23c1.6-0.32,3.17-0.48,4.7-0.48c1.73,0,3.52,0.22,5.39,0.67
			c1.87,0.44,3.42,1.01,4.68,1.71c1.81,1.03,2.94,2.36,3.38,4c0.22,0.83,0.33,2.24,0.33,4.21v15.43c0,2.61,0.11,4.39,0.33,5.34
			c0.47,1.97,1.61,2.96,3.42,2.96c0.86,0,1.54-0.15,2.02-0.46C235.36,103.29,235.93,102.68,236.6,101.76z M222.8,85.33
			c-1.5,1.25-3.14,2.35-4.95,3.29c-2.02,1.08-3.42,1.9-4.2,2.46c-0.78,0.56-1.48,1.22-2.12,2c-1.3,1.61-1.95,3.49-1.95,5.63
			c0,1.83,0.51,3.35,1.52,4.54c1.01,1.2,2.29,1.79,3.84,1.79c1.36,0,2.64-0.42,3.84-1.27c1.2-0.85,2.11-1.98,2.72-3.4
			c0.86-1.86,1.29-4.56,1.29-8.09V85.33z"/>
	</g>
	<path class="st1" d="M51.97,83.78c0-0.43,0.01-5.79,0-6.22c-0.02-0.67,10.93,0.28,10.88-0.39c-1.42-16.9-13.67-29.93-28.56-29.93
		c-15.85,0-28.7,14.95-28.7,33.39s12.85,33.39,28.7,33.39c14.05,0,25.73-11.74,28.21-27.24c0.08-0.52,0.16-1.05,0.22-1.59
		c0.05-0.42,0.09-0.83,0.13-1.25c0.05-0.59-0.02,0.77,0,0.17C62.87,83.62,51.97,84.3,51.97,83.78z"/>
	<path class="st2" d="M23.77,78.4l20.14-3.09c0,0,2.62-0.34,2.15-2.01c-0.47-1.68-0.47-1.68-0.47-1.68s-2.15-5.71-6.78-7.59
		c-4.63-1.88-14.77-1.41-19.53,8.32s0.87,20,3.36,22.76c2.48,2.75,9.13,7.32,18.93,3.09c6.98-2.82,7.59-10.54,7.59-10.54
		s-1.24-1.17-2.1-0.37c-0.86,0.81,0.35,1.91-4.18,5.29c-4.53,3.37-11.28,2.62-14.8-1.61S23.35,82.79,23.77,78.4z"/>
	<path class="st1" d="M23.97,73.09c0,0,1.41-5.97,6.38-7.05s7.4,2.74,7.79,5.44c0.29,2.06-2.28,2.28-2.28,2.28l-10.67,1.61
		C25.17,75.37,22.74,76.43,23.97,73.09z"/>
</g>
</svg>
